<mxfile host="65bd71144e">
    <diagram id="V89Eg_rosFVYhC_wfk8j" name="Page-1">
        <mxGraphModel dx="800" dy="783" grid="1" gridSize="10" guides="1" tooltips="1" connect="1" arrows="1" fold="1" page="1" pageScale="1" pageWidth="850" pageHeight="1100" math="0" shadow="0">
            <root>
                <mxCell id="0"/>
                <mxCell id="1" parent="0"/>
                <mxCell id="4" value="" style="edgeStyle=none;html=1;" parent="1" edge="1">
                    <mxGeometry relative="1" as="geometry">
                        <mxPoint x="220" y="212" as="sourcePoint"/>
                        <mxPoint x="410" y="212" as="targetPoint"/>
                    </mxGeometry>
                </mxCell>
                <mxCell id="11" style="edgeStyle=none;html=1;exitX=0;exitY=0.75;exitDx=0;exitDy=0;" parent="1" source="18" edge="1">
                    <mxGeometry relative="1" as="geometry">
                        <mxPoint x="100" y="160" as="targetPoint"/>
                    </mxGeometry>
                </mxCell>
                <mxCell id="2" value="discover" style="rounded=1;whiteSpace=wrap;html=1;" parent="1" vertex="1">
                    <mxGeometry x="100" y="190" width="120" height="60" as="geometry"/>
                </mxCell>
                <mxCell id="10" style="edgeStyle=none;html=1;exitX=0;exitY=0.75;exitDx=0;exitDy=0;entryX=0;entryY=0.75;entryDx=0;entryDy=0;" parent="1" source="3" target="2" edge="1">
                    <mxGeometry relative="1" as="geometry"/>
                </mxCell>
                <mxCell id="3" value="- 正常情况，返回：discover:mac;channel.&lt;br&gt;&amp;nbsp; &amp;nbsp; - channel 合法 或者 没有 channel 参数&lt;br&gt;&amp;nbsp; &amp;nbsp; - 参数 mac 匹配 或者 没有参数 mac 但是 last_mac 匹配：&lt;br&gt;- 非正常情况，不返回&lt;br&gt;&amp;nbsp; &amp;nbsp; - mac 不匹配 或者 没有参数 mac 且 last_mac 也不匹配&lt;br&gt;&amp;nbsp; &amp;nbsp; - channel 参数不合法" style="whiteSpace=wrap;html=1;rounded=1;align=left;" parent="1" vertex="1">
                    <mxGeometry x="410" y="169" width="400" height="102" as="geometry"/>
                </mxCell>
                <mxCell id="5" value="espnow" style="text;html=1;align=center;verticalAlign=middle;resizable=0;points=[];autosize=1;strokeColor=none;fillColor=none;" parent="1" vertex="1">
                    <mxGeometry x="280" y="182" width="60" height="30" as="geometry"/>
                </mxCell>
                <mxCell id="6" value="" style="edgeStyle=none;html=1;" parent="1" source="7" target="8" edge="1">
                    <mxGeometry relative="1" as="geometry"/>
                </mxCell>
                <mxCell id="7" value="wifi_error" style="rounded=1;whiteSpace=wrap;html=1;" parent="1" vertex="1">
                    <mxGeometry x="100" y="310" width="120" height="60" as="geometry"/>
                </mxCell>
                <mxCell id="8" value="- 正常情况，返回：wifi_error:从 wifi_error cb 返回的信息&lt;br&gt;&amp;nbsp; &amp;nbsp; - channel 合法 或者 没有 channel 参数&lt;br&gt;&amp;nbsp; &amp;nbsp; - 参数 mac 匹配 或者 没有参数 mac 但是 last_mac 匹配：&lt;br&gt;- 非正常情况，不返回：&lt;br&gt;&amp;nbsp;&amp;nbsp; - mac 不匹配 或者 没有参数 mac 且 last_mac 也不匹配&lt;br&gt;&amp;nbsp; &amp;nbsp; - channel 参数不合法" style="whiteSpace=wrap;html=1;rounded=1;align=left;" parent="1" vertex="1">
                    <mxGeometry x="410" y="285" width="400" height="110" as="geometry"/>
                </mxCell>
                <mxCell id="9" value="espnow" style="text;html=1;align=center;verticalAlign=middle;resizable=0;points=[];autosize=1;strokeColor=none;fillColor=none;" parent="1" vertex="1">
                    <mxGeometry x="280" y="310" width="60" height="30" as="geometry"/>
                </mxCell>
                <mxCell id="12" value="通过 cb 将 response 给到应用层" style="text;html=1;align=center;verticalAlign=middle;resizable=0;points=[];autosize=1;strokeColor=none;fillColor=none;" parent="1" vertex="1">
                    <mxGeometry x="30" y="125" width="190" height="30" as="geometry"/>
                </mxCell>
                <mxCell id="13" value="" style="edgeStyle=none;html=1;" parent="1" source="14" target="15" edge="1">
                    <mxGeometry relative="1" as="geometry"/>
                </mxCell>
                <mxCell id="14" value="cloud_error" style="rounded=1;whiteSpace=wrap;html=1;" parent="1" vertex="1">
                    <mxGeometry x="100" y="435" width="120" height="60" as="geometry"/>
                </mxCell>
                <mxCell id="15" value="- 正常情况，返回：cloud_error:从 cloud_error cb 返回的信息&lt;br&gt;&amp;nbsp; &amp;nbsp; - channel 合法 或者 没有 channel 参数&lt;br&gt;&amp;nbsp; &amp;nbsp; - 参数 mac 匹配 或者 没有参数 mac 但是 last_mac 匹配：&lt;br&gt;- 非正常情况，返回：&lt;br&gt;&amp;nbsp;&amp;nbsp; - mac 不匹配 或者 没有参数 mac 且 last_mac 也不匹配&lt;br&gt;&amp;nbsp; &amp;nbsp; - channel 参数不合法" style="whiteSpace=wrap;html=1;rounded=1;align=left;" parent="1" vertex="1">
                    <mxGeometry x="410" y="410" width="400" height="110" as="geometry"/>
                </mxCell>
                <mxCell id="16" value="espnow" style="text;html=1;align=center;verticalAlign=middle;resizable=0;points=[];autosize=1;strokeColor=none;fillColor=none;" parent="1" vertex="1">
                    <mxGeometry x="280" y="435" width="60" height="30" as="geometry"/>
                </mxCell>
                <mxCell id="17" value="" style="edgeStyle=none;html=1;" parent="1" source="18" target="19" edge="1">
                    <mxGeometry relative="1" as="geometry"/>
                </mxCell>
                <mxCell id="18" value="core_log" style="rounded=1;whiteSpace=wrap;html=1;" parent="1" vertex="1">
                    <mxGeometry x="100" y="555" width="120" height="60" as="geometry"/>
                </mxCell>
                <mxCell id="19" value="- 正常情况，返回：core_log:mac;channel.&lt;br&gt;&amp;nbsp; &amp;nbsp; - 各个参数合法&lt;br&gt;- 非正常情况，不返回：&lt;br&gt;&amp;nbsp; &amp;nbsp; - 有参数不合法或者不匹配" style="whiteSpace=wrap;html=1;rounded=1;align=left;" parent="1" vertex="1">
                    <mxGeometry x="410" y="540" width="400" height="90" as="geometry"/>
                </mxCell>
                <mxCell id="20" value="espnow" style="text;html=1;align=center;verticalAlign=middle;resizable=0;points=[];autosize=1;strokeColor=none;fillColor=none;" parent="1" vertex="1">
                    <mxGeometry x="280" y="555" width="60" height="30" as="geometry"/>
                </mxCell>
                <mxCell id="21" style="edgeStyle=none;html=1;exitX=0;exitY=0.75;exitDx=0;exitDy=0;entryX=0;entryY=0.75;entryDx=0;entryDy=0;" edge="1" parent="1">
                    <mxGeometry relative="1" as="geometry">
                        <mxPoint x="410" y="370" as="sourcePoint"/>
                        <mxPoint x="100" y="359.5" as="targetPoint"/>
                    </mxGeometry>
                </mxCell>
                <mxCell id="22" style="edgeStyle=none;html=1;exitX=0;exitY=0.75;exitDx=0;exitDy=0;entryX=0;entryY=0.75;entryDx=0;entryDy=0;" edge="1" parent="1">
                    <mxGeometry relative="1" as="geometry">
                        <mxPoint x="410" y="490.5" as="sourcePoint"/>
                        <mxPoint x="100" y="480" as="targetPoint"/>
                    </mxGeometry>
                </mxCell>
                <mxCell id="23" style="edgeStyle=none;html=1;exitX=0;exitY=0.75;exitDx=0;exitDy=0;entryX=0;entryY=0.75;entryDx=0;entryDy=0;" edge="1" parent="1">
                    <mxGeometry relative="1" as="geometry">
                        <mxPoint x="410" y="610.5" as="sourcePoint"/>
                        <mxPoint x="100" y="600" as="targetPoint"/>
                    </mxGeometry>
                </mxCell>
            </root>
        </mxGraphModel>
    </diagram>
</mxfile>
